HIERARCHY
ROOT Hips
{
	OFFSET 0.000000 0.000000 0.000000
	CHANNELS 6 Xposition Yposition Zposition Zrotation Xrotation Yrotation
	JOINT Spine
	{
		OFFSET 0.000000 0.059888 0.006665
		CHANNELS 6 Xposition Yposition Zposition Zrotation Xrotation Yrotation
		JOINT Chest
		{
			OFFSET 0.000000 0.125681 -0.015911
			CHANNELS 6 Xposition Yposition Zposition Zrotation Xrotation Yrotation
			JOINT UpperChest
			{
				OFFSET 0.000000 0.122768 -0.001652
				CHANNELS 6 Xposition Yposition Zposition Zrotation Xrotation Yrotation
				JOINT Neck
				{
					OFFSET 0.000000 0.155865 0.008735
					CHANNELS 6 Xposition Yposition Zposition Zrotation Xrotation Yrotation
					JOINT Head
					{
						OFFSET 0.000000 0.095969 -0.000410
						CHANNELS 6 Xposition Yposition Zposition Zrotation Xrotation Yrotation
						JOINT LeftEye
						{
							OFFSET 0.015267 0.059218 0.021494
							CHANNELS 6 Xposition Yposition Zposition Zrotation Xrotation Yrotation
							End Site
							{
								OFFSET 0.015267 0.059218 0.021494
							}
						}
						JOINT RightEye
						{
							OFFSET -0.015267 0.059218 0.021494
							CHANNELS 6 Xposition Yposition Zposition Zrotation Xrotation Yrotation
							End Site
							{
								OFFSET -0.015267 0.059218 0.021494
							}
						}
					}
				}
				JOINT LeftShoulder
				{
					OFFSET 0.025383 0.124268 0.007699
					CHANNELS 6 Xposition Yposition Zposition Zrotation Xrotation Yrotation
					JOINT LeftUpperArm
					{
						OFFSET 0.136062 0.000000 0.000000
						CHANNELS 6 Xposition Yposition Zposition Zrotation Xrotation Yrotation
						JOINT LeftLowerArm
						{
							OFFSET 0.225446 0.000000 0.000000
							CHANNELS 6 Xposition Yposition Zposition Zrotation Xrotation Yrotation
							JOINT LeftHand
							{
								OFFSET 0.256325 0.000003 0.000015
								CHANNELS 6 Xposition Yposition Zposition Zrotation Xrotation Yrotation
								JOINT LeftIndexProximal
								{
									OFFSET 0.074229 0.008101 0.022282
									CHANNELS 6 Xposition Yposition Zposition Zrotation Xrotation Yrotation
									JOINT LeftIndexIntermediate
									{
										OFFSET 0.037712 0.000000 -0.000001
										CHANNELS 6 Xposition Yposition Zposition Zrotation Xrotation Yrotation
										JOINT LeftIndexDistal
										{
											OFFSET 0.023218 0.000022 0.000021
											CHANNELS 6 Xposition Yposition Zposition Zrotation Xrotation Yrotation
											End Site
											{
												OFFSET 0.023218 0.000022 0.000021
											}
										}
									}
								}
								JOINT LeftLittleProximal
								{
									OFFSET 0.069261 0.008101 -0.033073
									CHANNELS 6 Xposition Yposition Zposition Zrotation Xrotation Yrotation
									JOINT LeftLittleIntermediate
									{
										OFFSET 0.035643 0.000000 0.000000
										CHANNELS 6 Xposition Yposition Zposition Zrotation Xrotation Yrotation
										JOINT LeftLittleDistal
										{
											OFFSET 0.020542 0.000000 0.000000
											CHANNELS 6 Xposition Yposition Zposition Zrotation Xrotation Yrotation
											End Site
											{
												OFFSET 0.020542 0.000000 0.000000
											}
										}
									}
								}
								JOINT LeftMiddleProximal
								{
									OFFSET 0.075240 0.008101 0.002320
									CHANNELS 6 Xposition Yposition Zposition Zrotation Xrotation Yrotation
									JOINT LeftMiddleIntermediate
									{
										OFFSET 0.042007 0.000000 0.000000
										CHANNELS 6 Xposition Yposition Zposition Zrotation Xrotation Yrotation
										JOINT LeftMiddleDistal
										{
											OFFSET 0.025915 0.000000 0.000000
											CHANNELS 6 Xposition Yposition Zposition Zrotation Xrotation Yrotation
											End Site
											{
												OFFSET 0.025915 0.000000 0.000000
											}
										}
									}
								}
								JOINT LeftRingProximal
								{
									OFFSET 0.074383 0.008101 -0.015403
									CHANNELS 6 Xposition Yposition Zposition Zrotation Xrotation Yrotation
									JOINT LeftRingIntermediate
									{
										OFFSET 0.038967 0.000000 0.000000
										CHANNELS 6 Xposition Yposition Zposition Zrotation Xrotation Yrotation
										JOINT LeftRingDistal
										{
											OFFSET 0.022488 0.000000 0.000000
											CHANNELS 6 Xposition Yposition Zposition Zrotation Xrotation Yrotation
											End Site
											{
												OFFSET 0.022488 0.000000 0.000000
											}
										}
									}
								}
								JOINT LeftThumbProximal
								{
									OFFSET 0.003995 -0.010985 0.018096
									CHANNELS 6 Xposition Yposition Zposition Zrotation Xrotation Yrotation
									JOINT LeftThumbIntermediate
									{
										OFFSET 0.052819 -0.000008 -0.000074
										CHANNELS 6 Xposition Yposition Zposition Zrotation Xrotation Yrotation
										JOINT LeftThumbDistal
										{
											OFFSET 0.032489 0.000042 -0.000035
											CHANNELS 6 Xposition Yposition Zposition Zrotation Xrotation Yrotation
											End Site
											{
												OFFSET 0.032489 0.000042 -0.000035
											}
										}
									}
								}
							}
						}
					}
				}
				JOINT RightShoulder
				{
					OFFSET -0.025383 0.124268 0.007699
					CHANNELS 6 Xposition Yposition Zposition Zrotation Xrotation Yrotation
					JOINT RightUpperArm
					{
						OFFSET -0.136062 0.000000 0.000000
						CHANNELS 6 Xposition Yposition Zposition Zrotation Xrotation Yrotation
						JOINT RightLowerArm
						{
							OFFSET -0.225446 0.000000 0.000000
							CHANNELS 6 Xposition Yposition Zposition Zrotation Xrotation Yrotation
							JOINT RightHand
							{
								OFFSET -0.256325 0.000003 0.000015
								CHANNELS 6 Xposition Yposition Zposition Zrotation Xrotation Yrotation
								JOINT RightIndexProximal
								{
									OFFSET -0.074229 0.008101 0.022282
									CHANNELS 6 Xposition Yposition Zposition Zrotation Xrotation Yrotation
									JOINT RightIndexIntermediate
									{
										OFFSET -0.037712 0.000000 -0.000001
										CHANNELS 6 Xposition Yposition Zposition Zrotation Xrotation Yrotation
										JOINT RightIndexDistal
										{
											OFFSET -0.023218 0.000022 0.000021
											CHANNELS 6 Xposition Yposition Zposition Zrotation Xrotation Yrotation
											End Site
											{
												OFFSET -0.023218 0.000022 0.000021
											}
										}
									}
								}
								JOINT RightLittleProximal
								{
									OFFSET -0.069261 0.008101 -0.033073
									CHANNELS 6 Xposition Yposition Zposition Zrotation Xrotation Yrotation
									JOINT RightLittleIntermediate
									{
										OFFSET -0.035643 0.000000 0.000000
										CHANNELS 6 Xposition Yposition Zposition Zrotation Xrotation Yrotation
										JOINT RightLittleDistal
										{
											OFFSET -0.020542 0.000000 0.000000
											CHANNELS 6 Xposition Yposition Zposition Zrotation Xrotation Yrotation
											End Site
											{
												OFFSET -0.020542 0.000000 0.000000
											}
										}
									}
								}
								JOINT RightMiddleProximal
								{
									OFFSET -0.075240 0.008101 0.002320
									CHANNELS 6 Xposition Yposition Zposition Zrotation Xrotation Yrotation
									JOINT RightMiddleIntermediate
									{
										OFFSET -0.042007 0.000000 0.000000
										CHANNELS 6 Xposition Yposition Zposition Zrotation Xrotation Yrotation
										JOINT RightMiddleDistal
										{
											OFFSET -0.025915 0.000000 0.000000
											CHANNELS 6 Xposition Yposition Zposition Zrotation Xrotation Yrotation
											End Site
											{
												OFFSET -0.025915 0.000000 0.000000
											}
										}
									}
								}
								JOINT RightRingProximal
								{
									OFFSET -0.074383 0.008101 -0.015403
									CHANNELS 6 Xposition Yposition Zposition Zrotation Xrotation Yrotation
									JOINT RightRingIntermediate
									{
										OFFSET -0.038967 0.000000 0.000000
										CHANNELS 6 Xposition Yposition Zposition Zrotation Xrotation Yrotation
										JOINT RightRingDistal
										{
											OFFSET -0.022488 0.000000 0.000000
											CHANNELS 6 Xposition Yposition Zposition Zrotation Xrotation Yrotation
											End Site
											{
												OFFSET -0.022488 0.000000 0.000000
											}
										}
									}
								}
								JOINT RightThumbProximal
								{
									OFFSET -0.003995 -0.010985 0.018096
									CHANNELS 6 Xposition Yposition Zposition Zrotation Xrotation Yrotation
									JOINT RightThumbIntermediate
									{
										OFFSET -0.052819 -0.000008 -0.000074
										CHANNELS 6 Xposition Yposition Zposition Zrotation Xrotation Yrotation
										JOINT RightThumbDistal
										{
											OFFSET -0.032489 0.000042 -0.000035
											CHANNELS 6 Xposition Yposition Zposition Zrotation Xrotation Yrotation
											End Site
											{
												OFFSET -0.032489 0.000042 -0.000035
											}
										}
									}
								}
							}
						}
					}
				}
			}
		}
	}
	JOINT LeftUpperLeg
	{
		OFFSET 0.087143 -0.045243 0.001548
		CHANNELS 6 Xposition Yposition Zposition Zrotation Xrotation Yrotation
		JOINT LeftLowerLeg
		{
			OFFSET 0.000000 -0.394432 -0.000001
			CHANNELS 6 Xposition Yposition Zposition Zrotation Xrotation Yrotation
			JOINT LeftFoot
			{
				OFFSET 0.000000 -0.466446 0.003058
				CHANNELS 6 Xposition Yposition Zposition Zrotation Xrotation Yrotation
				JOINT LeftToes
				{
					OFFSET 0.000000 -0.079218 0.140851
					CHANNELS 6 Xposition Yposition Zposition Zrotation Xrotation Yrotation
					End Site
					{
						OFFSET 0.000000 -0.079218 0.140851
					}
				}
			}
		}
	}
	JOINT RightUpperLeg
	{
		OFFSET -0.087143 -0.045243 0.001548
		CHANNELS 6 Xposition Yposition Zposition Zrotation Xrotation Yrotation
		JOINT RightLowerLeg
		{
			OFFSET 0.000000 -0.394432 -0.000001
			CHANNELS 6 Xposition Yposition Zposition Zrotation Xrotation Yrotation
			JOINT RightFoot
			{
				OFFSET 0.000000 -0.466446 0.003058
				CHANNELS 6 Xposition Yposition Zposition Zrotation Xrotation Yrotation
				JOINT RightToes
				{
					OFFSET 0.000000 -0.079218 0.140851
					CHANNELS 6 Xposition Yposition Zposition Zrotation Xrotation Yrotation
					End Site
					{
						OFFSET 0.000000 -0.079218 0.140851
					}
				}
			}
		}
	}
}
MOTION
Frames: 4
Frame Time: 0.041667
0.003562 0.968827 0.024655 1.800897 11.856318 14.636508 -0.000000 0.059888 0.006665 0.641750 5.119604 -2.234683 0.000000 0.125681 -0.015911 0.511172 -1.899310 0.195636 -0.000000 0.122768 -0.001652 -0.000017 -12.397688 -0.000061 0.000000 0.155865 0.008735 0.416981 19.233896 -0.123572 0.000000 0.095969 -0.000410 4.109750 10.933047 2.351220 0.015267 0.059218 0.021494 -1.701131 3.586994 21.747932 -0.015267 0.059218 0.021494 1.701132 3.587003 -21.747927 0.025383 0.124268 0.007699 1.437282 -1.733198 16.569219 0.136062 -0.000000 -0.000000 -58.701077 23.308862 -2.382616 0.225446 -0.000000 -0.000000 -4.363737 47.189869 -55.584834 0.256325 0.000003 0.000015 2.686417 18.536143 -13.093788 0.074229 0.008101 0.022282 -0.012967 0.667618 1.112105 0.037712 0.000000 -0.000001 -1.679194 1.282861 0.674525 0.023218 0.000022 0.000021 -0.334984 1.286453 -0.710999 0.069261 0.008101 -0.033073 0.000003 -0.000041 -0.000001 0.035643 0.000000 -0.000000 0.000003 0.000000 0.000003 0.020542 -0.000000 -0.000000 0.890202 -0.008562 -1.101171 0.075240 0.008101 0.002320 -0.000003 -0.000008 -0.000006 0.042007 0.000000 0.000000 0.000000 0.000041 -0.000010 0.025915 0.000000 0.000000 0.000004 0.000042 -0.000013 0.074383 0.008101 -0.015403 -0.000003 0.000014 0.000005 0.038967 0.000000 0.000000 -0.000000 0.000002 0.000004 0.022488 0.000000 -0.000000 -0.712571 -0.008157 1.310730 0.003995 -0.010985 0.018096 86.199494 49.487521 -89.646581 0.052819 -0.000008 -0.000074 -2.573039 -0.739912 0.463023 0.032489 0.000042 -0.000035 4.590284 -0.705069 -0.717107 -0.025383 0.124268 0.007699 -5.857732 -1.737373 -16.496259 -0.136062 -0.000000 -0.000000 44.969580 24.983999 13.014325 -0.225446 -0.000000 -0.000000 13.079428 53.286028 63.744619 -0.256325 0.000003 0.000015 -10.767679 15.111913 5.747381 -0.074229 0.008101 0.022282 0.012967 0.667621 -1.112108 -0.037712 0.000000 -0.000001 1.679197 1.282858 -0.674521 -0.023218 0.000022 0.000021 0.334983 1.286454 0.711000 -0.069261 0.008101 -0.033073 -0.000004 -0.000042 0.000000 -0.035643 -0.000000 0.000000 -0.000001 -0.000003 -0.000003 -0.020542 0.000000 -0.000000 -0.890201 -0.008563 1.101172 -0.075240 0.008101 0.002320 0.000001 -0.000007 0.000005 -0.042007 -0.000000 0.000000 -0.000002 0.000039 0.000013 -0.025915 -0.000000 0.000000 -0.000004 0.000041 0.000009 -0.074383 0.008101 -0.015403 -0.000003 0.000016 -0.000006 -0.038967 -0.000000 0.000000 -0.000003 0.000001 -0.000004 -0.022488 0.000000 -0.000000 0.712572 -0.008160 -1.310730 -0.003995 -0.010985 0.018096 -86.199433 49.487514 89.646581 -0.052819 -0.000008 -0.000074 2.573038 -0.739913 -0.463022 -0.032489 0.000042 -0.000035 -4.590281 -0.705065 0.717110 0.087143 -0.045243 0.001548 1.631303 -5.083027 0.144545 -0.000000 -0.394432 -0.000001 -13.464285 41.479179 19.873386 0.000000 -0.466446 0.003058 -1.199847 -10.877374 -6.555134 0.000000 -0.079218 0.140851 -0.000002 0.248278 0.000000 -0.087143 -0.045243 0.001548 -9.246609 -16.180950 -2.597557 0.000000 -0.394432 -0.000001 -2.067833 55.297229 2.514747 -0.000000 -0.466446 0.003058 3.469372 -10.220347 19.524608 0.000000 -0.079218 0.140851 -0.000001 0.248282 -0.000000 
0.014454 0.970673 0.025174 4.659871 11.774354 14.071732 0.000000 0.059888 0.006665 0.872962 5.577358 -1.230834 0.000000 0.125681 -0.015911 0.961857 -1.460773 0.285879 0.000000 0.122768 -0.001652 -0.000020 -12.397687 -0.000063 0.000000 0.155865 0.008735 -0.094527 19.260660 -0.099065 0.000000 0.095969 -0.000410 2.745438 12.565199 0.863833 0.015267 0.059218 0.021494 -1.701130 3.586995 21.747932 -0.015267 0.059218 0.021494 1.701133 3.587005 -21.747922 0.025383 0.124268 0.007699 1.432698 -2.018667 17.064285 0.136062 -0.000000 0.000000 -57.382175 24.148976 -3.724788 0.225446 -0.000000 -0.000000 -4.801062 48.250683 -56.437536 0.256325 0.000003 0.000015 3.659998 18.921589 -14.553733 0.074229 0.008101 0.022282 -0.012969 0.667617 1.112104 0.037712 0.000000 -0.000001 -1.679198 1.282863 0.674522 0.023218 0.000022 0.000021 -0.334983 1.286453 -0.711002 0.069261 0.008101 -0.033073 0.000002 -0.000043 0.000000 0.035643 0.000000 -0.000000 0.000001 -0.000001 0.000001 0.020542 0.000000 -0.000000 0.890205 -0.008564 -1.101174 0.075240 0.008101 0.002320 -0.000000 -0.000009 -0.000007 0.042007 -0.000000 0.000000 0.000000 0.000040 -0.000012 0.025915 0.000000 0.000000 0.000000 0.000039 -0.000015 0.074383 0.008101 -0.015403 -0.000001 0.000012 0.000004 0.038967 -0.000000 -0.000000 0.000001 -0.000005 0.000001 0.022488 0.000000 0.000000 -0.712574 -0.008160 1.310730 0.003995 -0.010985 0.018096 86.199494 49.487521 -89.646574 0.052819 -0.000008 -0.000074 -2.573036 -0.739917 0.463017 0.032489 0.000042 -0.000035 4.590287 -0.705067 -0.717109 -0.025383 0.124268 0.007699 -6.111670 -2.028582 -16.752484 -0.136062 -0.000000 -0.000000 44.892859 24.729805 12.087570 -0.225446 0.000000 -0.000000 11.520622 52.242744 66.355479 -0.256325 0.000003 0.000015 -11.565459 16.370632 6.198805 -0.074229 0.008101 0.022282 0.012966 0.667621 -1.112104 -0.037712 0.000000 -0.000001 1.679195 1.282861 -0.674525 -0.023218 0.000022 0.000021 0.334985 1.286452 0.711006 -0.069261 0.008101 -0.033073 -0.000008 -0.000042 0.000000 -0.035643 -0.000000 -0.000000 -0.000004 0.000000 -0.000003 -0.020542 -0.000000 0.000000 -0.890206 -0.008562 1.101171 -0.075240 0.008101 0.002320 -0.000001 -0.000007 0.000004 -0.042007 -0.000000 -0.000000 -0.000005 0.000038 0.000012 -0.025915 0.000000 -0.000000 -0.000002 0.000039 0.000010 -0.074383 0.008101 -0.015403 -0.000000 0.000015 -0.000006 -0.038967 0.000000 -0.000000 -0.000004 -0.000002 -0.000002 -0.022488 0.000000 0.000000 0.712571 -0.008159 -1.310733 -0.003995 -0.010985 0.018096 -86.199439 49.487524 89.646581 -0.052819 -0.000008 -0.000074 2.573040 -0.739912 -0.463022 -0.032489 0.000042 -0.000035 -4.590282 -0.705066 0.717110 0.087143 -0.045243 0.001548 -1.406408 -4.061227 -0.099645 -0.000000 -0.394432 -0.000001 -15.672053 40.572324 23.333468 -0.000000 -0.466446 0.003058 -1.522661 -10.536555 -8.568715 -0.000000 -0.079218 0.140851 0.000000 0.248283 0.000000 -0.087143 -0.045243 0.001548 -13.187325 -16.357760 -3.775484 0.000000 -0.394432 -0.000001 -5.548935 56.693685 6.630574 -0.000000 -0.466446 0.003058 3.206121 -8.923722 20.650208 -0.000000 -0.079218 0.140851 -0.000001 0.248283 -0.000000 
0.023909 0.971923 0.024146 7.447512 11.730418 12.973050 0.000000 0.059888 0.006665 0.965270 6.014926 0.224060 0.000000 0.125681 -0.015911 1.346616 -1.074622 0.316013 0.000000 0.122768 -0.001652 -0.000017 -12.397690 -0.000060 0.000000 0.155865 0.008735 -0.716431 19.288779 -0.027050 0.000000 0.095969 -0.000410 1.317192 14.158126 -0.202273 0.015267 0.059218 0.021494 -1.701132 3.586993 21.747934 -0.015267 0.059218 0.021494 1.701133 3.587004 -21.747923 0.025383 0.124268 0.007699 2.736149 -2.264926 17.465087 0.136062 -0.000000 -0.000000 -57.710051 24.935211 -4.437816 0.225446 -0.000000 -0.000000 -5.770725 48.999777 -56.647041 0.256325 0.000003 0.000015 3.818238 18.264428 -15.100758 0.074229 0.008101 0.022282 -0.012966 0.667617 1.112103 0.037712 -0.000000 -0.000001 -1.679193 1.282861 0.674522 0.023218 0.000022 0.000021 -0.334983 1.286454 -0.710998 0.069261 0.008101 -0.033073 0.000003 -0.000042 0.000003 0.035643 -0.000000 0.000000 0.000001 0.000001 0.000002 0.020542 0.000000 0.000000 0.890207 -0.008564 -1.101173 0.075240 0.008101 0.002320 -0.000002 -0.000009 -0.000006 0.042007 0.000000 0.000000 0.000002 0.000038 -0.000013 0.025915 0.000000 0.000000 -0.000000 0.000040 -0.000012 0.074383 0.008101 -0.015403 -0.000002 0.000012 0.000003 0.038967 0.000000 0.000000 -0.000003 0.000001 0.000002 0.022488 0.000000 -0.000000 -0.712572 -0.008157 1.310729 0.003995 -0.010985 0.018096 86.199487 49.487521 -89.646574 0.052819 -0.000008 -0.000074 -2.573037 -0.739912 0.463021 0.032489 0.000042 -0.000035 4.590282 -0.705069 -0.717110 -0.025383 0.124268 0.007699 -4.942931 -2.280073 -16.879732 -0.136062 -0.000000 -0.000000 43.668791 24.234916 11.405662 -0.225446 0.000000 -0.000000 10.129695 50.921215 68.901077 -0.256325 0.000003 0.000015 -11.826017 18.190503 7.481262 -0.074229 0.008101 0.022282 0.012968 0.667617 -1.112102 -0.037712 0.000000 -0.000001 1.679194 1.282860 -0.674522 -0.023218 0.000022 0.000021 0.334980 1.286454 0.710994 -0.069261 0.008101 -0.033073 -0.000003 -0.000046 0.000001 -0.035643 -0.000000 0.000000 -0.000003 0.000003 -0.000005 -0.020542 -0.000000 0.000000 -0.890205 -0.008562 1.101171 -0.075240 0.008101 0.002320 0.000001 -0.000009 0.000003 -0.042007 -0.000000 0.000000 -0.000003 0.000041 0.000012 -0.025915 -0.000000 -0.000000 -0.000006 0.000041 0.000016 -0.074383 0.008101 -0.015403 -0.000000 0.000013 -0.000005 -0.038967 0.000000 0.000000 -0.000006 0.000000 -0.000000 -0.022488 0.000000 -0.000000 0.712569 -0.008159 -1.310723 -0.003995 -0.010985 0.018096 -86.199426 49.487521 89.646581 -0.052819 -0.000008 -0.000074 2.573040 -0.739910 -0.463021 -0.032489 0.000042 -0.000035 -4.590281 -0.705065 0.717110 0.087143 -0.045243 0.001548 -4.907430 -3.586756 -0.307772 0.000000 -0.394432 -0.000001 -16.889693 39.839407 25.358290 0.000000 -0.466446 0.003058 -1.792313 -11.094195 -9.550548 0.000000 -0.079218 0.140851 0.000002 0.248283 0.000002 -0.087143 -0.045243 0.001548 -16.971985 -16.864456 -5.059726 -0.000000 -0.394432 -0.000001 -9.467262 57.138863 11.228425 -0.000000 -0.466446 0.003058 2.950393 -7.898713 21.488374 -0.000000 -0.079218 0.140851 -0.000001 0.248285 -0.000001 
0.031985 0.972739 0.022939 10.111722 11.739856 11.805818 0.000000 0.059888 0.006665 0.976090 6.381819 1.596155 -0.000000 0.125681 -0.015911 1.642807 -0.746600 0.307210 0.000000 0.122768 -0.001652 -0.000020 -12.397688 -0.000064 0.000000 0.155865 0.008735 -1.474927 19.356013 0.068296 -0.000000 0.095969 -0.000410 -0.292664 15.237049 -1.028815 0.015267 0.059218 0.021494 -1.701134 3.586987 21.747934 -0.015267 0.059218 0.021494 1.701130 3.586992 -21.747923 0.025383 0.124268 0.007699 4.764127 -2.478100 17.834917 0.136062 0.000000 -0.000000 -58.962844 25.580394 -4.578527 0.225446 0.000000 -0.000000 -7.276776 49.343260 -56.474029 0.256325 0.000003 0.000015 3.454322 16.946915 -14.885187 0.074229 0.008101 0.022282 -0.012970 0.667620 1.112105 0.037712 0.000000 -0.000001 -1.679195 1.282861 0.674524 0.023218 0.000022 0.000021 -0.334988 1.286453 -0.711000 0.069261 0.008101 -0.033073 0.000001 -0.000041 0.000001 0.035643 0.000000 0.000000 -0.000001 0.000000 -0.000000 0.020542 0.000000 0.000000 0.890203 -0.008559 -1.101170 0.075240 0.008101 0.002320 -0.000003 -0.000008 -0.000006 0.042007 -0.000000 -0.000000 0.000002 0.000040 -0.000012 0.025915 0.000000 0.000000 0.000001 0.000040 -0.000012 0.074383 0.008101 -0.015403 -0.000003 0.000014 0.000004 0.038967 0.000000 -0.000000 -0.000002 0.000002 0.000000 0.022488 0.000000 0.000000 -0.712572 -0.008157 1.310732 0.003995 -0.010985 0.018096 86.199494 49.487524 -89.646574 0.052819 -0.000008 -0.000074 -2.573036 -0.739913 0.463021 0.032489 0.000042 -0.000035 4.590285 -0.705068 -0.717111 -0.025383 0.124268 0.007699 -3.048027 -2.501333 -16.873538 -0.136062 -0.000000 -0.000000 42.086605 23.595961 10.716481 -0.225446 0.000000 -0.000000 8.657399 48.974092 71.800984 -0.256325 0.000003 0.000015 -11.425673 20.514197 8.590407 -0.074229 0.008101 0.022282 0.012970 0.667620 -1.112103 -0.037712 0.000000 -0.000001 1.679193 1.282864 -0.674521 -0.023218 0.000022 0.000021 0.334982 1.286451 0.711003 -0.069261 0.008101 -0.033073 -0.000003 -0.000042 0.000003 -0.035643 0.000000 0.000000 -0.000003 0.000001 -0.000002 -0.020542 -0.000000 0.000000 -0.890204 -0.008559 1.101168 -0.075240 0.008101 0.002320 0.000003 -0.000009 0.000006 -0.042007 0.000000 0.000000 -0.000002 0.000040 0.000009 -0.025915 0.000000 0.000000 -0.000001 0.000041 0.000007 -0.074383 0.008101 -0.015403 0.000002 0.000014 -0.000003 -0.038967 0.000000 0.000000 -0.000003 -0.000000 -0.000001 -0.022488 -0.000000 0.000000 0.712571 -0.008155 -1.310735 -0.003995 -0.010985 0.018096 -86.199433 49.487514 89.646588 -0.052819 -0.000008 -0.000074 2.573040 -0.739911 -0.463020 -0.032489 0.000042 -0.000035 -4.590281 -0.705064 0.717111 0.087143 -0.045243 0.001548 -8.463926 -3.226469 -0.479870 0.000000 -0.394432 -0.000001 -17.357367 38.990248 26.416901 0.000000 -0.466446 0.003058 -1.989691 -11.809168 -9.940341 0.000000 -0.079218 0.140851 -0.000001 0.248287 0.000000 -0.087143 -0.045243 0.001548 -20.670055 -17.696288 -6.542030 0.000000 -0.394432 -0.000001 -13.347726 57.296763 15.746695 -0.000000 -0.466446 0.003058 2.651873 -6.884300 22.226240 -0.000000 -0.079218 0.140851 0.000000 0.248283 -0.000002 
